<?xml version="1.0" encoding="UTF-8"?>
<!DOCTYPE svg PUBLIC "-//W3C//DTD SVG 1.1//EN" "http://www.w3.org/Graphics/SVG/1.1/DTD/svg11.dtd">
<!-- Creator: CorelDRAW 2020 (64 Bit) -->
<svg xmlns="http://www.w3.org/2000/svg" xml:space="preserve" width="19.6505mm" height="4.6828mm" version="1.1" style="shape-rendering:geometricPrecision; text-rendering:geometricPrecision; image-rendering:optimizeQuality; fill-rule:evenodd; clip-rule:evenodd"
viewBox="0 0 673.79 160.57"
 xmlns:xlink="http://www.w3.org/1999/xlink"
 xmlns:xodm="http://www.corel.com/coreldraw/odm/2003">
 <defs>
  <style type="text/css">
   <![CDATA[
    .fil1 {fill:#4C4D5F}
    .fil3 {fill:#B3B3B3}
    .fil4 {fill:#EC502A}
    .fil2 {fill:white}
    .fil0 {fill:white;fill-rule:nonzero}
   ]]>
  </style>
 </defs>
 <g id="Camada_x0020_1">
  <metadata id="CorelCorpID_0Corel-Layer"/>
  <path class="fil0" d="M215.8 5.51l10.43 0 0 37.61c0,4.13 -0.97,7.76 -2.91,10.88 -1.94,3.13 -4.66,5.57 -8.17,7.32 -3.51,1.76 -7.6,2.63 -12.28,2.63 -4.71,0 -8.81,-0.87 -12.31,-2.63 -3.51,-1.75 -6.23,-4.19 -8.15,-7.32 -1.93,-3.13 -2.9,-6.75 -2.9,-10.88l0 -37.61 10.44 0 0 36.74c0,2.4 0.53,4.54 1.58,6.41 1.07,1.87 2.56,3.34 4.49,4.39 1.92,1.07 4.22,1.59 6.86,1.59 2.64,0 4.93,-0.52 6.87,-1.59 1.94,-1.06 3.43,-2.52 4.48,-4.39 1.04,-1.88 1.57,-4.01 1.57,-6.41l0 -36.74zm31.52 0l0 57.57 -10.18 0 0 -57.57 10.18 0zm32.02 14.39l0 7.88 -24.83 0 0 -7.88 24.83 0zm-18.69 -10.34l10.17 0 0 40.54c0,1.36 0.21,2.4 0.63,3.13 0.43,0.73 0.98,1.21 1.68,1.48 0.69,0.26 1.45,0.39 2.3,0.39 0.64,0 1.22,-0.05 1.77,-0.14 0.53,-0.09 0.94,-0.17 1.21,-0.25l1.71 7.95c-0.54,0.19 -1.32,0.39 -2.32,0.62 -1,0.22 -2.22,0.36 -3.67,0.39 -2.55,0.07 -4.84,-0.32 -6.89,-1.17 -2.03,-0.85 -3.66,-2.18 -4.84,-3.97 -1.19,-1.81 -1.78,-4.05 -1.76,-6.75l0 -42.22zm27.2 53.52l0 -43.18 10.18 0 0 43.18 -10.18 0zm5.14 -49.3c-1.62,0 -3.02,-0.54 -4.17,-1.62 -1.15,-1.07 -1.73,-2.38 -1.73,-3.89 0,-1.53 0.58,-2.84 1.74,-3.92 1.16,-1.08 2.55,-1.62 4.16,-1.62 1.62,0 3,0.54 4.16,1.62 1.15,1.08 1.73,2.39 1.73,3.92 0,1.52 -0.58,2.82 -1.73,3.89 -1.16,1.08 -2.53,1.62 -4.16,1.62zm15.49 49.3l0 -43.18 9.73 0 0 7.33 0.5 0c0.9,-2.47 2.39,-4.41 4.47,-5.81 2.07,-1.39 4.56,-2.08 7.44,-2.08 2.93,0 5.39,0.7 7.41,2.11 2.01,1.43 3.43,3.35 4.26,5.78l0.45 0c0.95,-2.39 2.58,-4.31 4.84,-5.74 2.28,-1.44 4.99,-2.15 8.12,-2.15 3.97,0 7.21,1.25 9.72,3.76 2.51,2.51 3.78,6.18 3.78,10.99l0 28.98 -10.21 0 0 -27.4c0,-2.69 -0.71,-4.65 -2.14,-5.9 -1.42,-1.24 -3.16,-1.87 -5.22,-1.87 -2.46,0 -4.37,0.76 -5.75,2.29 -1.37,1.53 -2.06,3.51 -2.06,5.95l0 26.93 -9.98 0 0 -27.82c0,-2.23 -0.68,-4.01 -2.01,-5.35 -1.35,-1.33 -3.09,-2 -5.24,-2 -1.46,0 -2.79,0.38 -4,1.12 -1.2,0.74 -2.15,1.78 -2.86,3.11 -0.71,1.34 -1.07,2.9 -1.07,4.68l0 26.25 -10.18 0zm83.48 0.87c-2.73,0 -5.2,-0.49 -7.38,-1.48 -2.19,-0.98 -3.91,-2.44 -5.17,-4.37 -1.27,-1.92 -1.9,-4.31 -1.9,-7.14 0,-2.44 0.45,-4.46 1.34,-6.04 0.9,-1.6 2.13,-2.88 3.68,-3.83 1.56,-0.96 3.31,-1.69 5.28,-2.18 1.95,-0.5 3.98,-0.86 6.08,-1.08 2.53,-0.26 4.58,-0.5 6.16,-0.73 1.57,-0.21 2.72,-0.55 3.45,-1 0.71,-0.46 1.08,-1.19 1.08,-2.15l0 -0.17c0,-2.13 -0.63,-3.76 -1.89,-4.92 -1.25,-1.16 -3.06,-1.74 -5.42,-1.74 -2.49,0 -4.47,0.54 -5.92,1.62 -1.45,1.09 -2.43,2.37 -2.93,3.85l-9.51 -1.34c0.75,-2.63 1.99,-4.82 3.72,-6.6 1.71,-1.77 3.83,-3.1 6.32,-3.98 2.49,-0.89 5.25,-1.33 8.27,-1.33 2.07,0 4.14,0.24 6.2,0.72 2.07,0.49 3.95,1.29 5.66,2.4 1.7,1.12 3.07,2.63 4.11,4.54 1.04,1.91 1.56,4.3 1.56,7.18l0 28.89 -9.78 0 0 -5.94 -0.34 0c-0.62,1.2 -1.49,2.32 -2.6,3.36 -1.12,1.04 -2.51,1.87 -4.19,2.51 -1.68,0.62 -3.63,0.94 -5.88,0.94zm2.64 -7.48c2.05,0 3.81,-0.41 5.32,-1.21 1.51,-0.82 2.65,-1.9 3.47,-3.24 0.82,-1.36 1.23,-2.82 1.23,-4.42l0 -5.09c-0.32,0.26 -0.86,0.51 -1.63,0.74 -0.75,0.23 -1.59,0.42 -2.53,0.58 -0.94,0.17 -1.88,0.33 -2.78,0.46 -0.92,0.13 -1.71,0.24 -2.39,0.33 -1.53,0.21 -2.89,0.54 -4.08,1.01 -1.2,0.46 -2.15,1.12 -2.85,1.95 -0.69,0.83 -1.03,1.9 -1.03,3.22 0,1.87 0.68,3.28 2.05,4.25 1.37,0.95 3.11,1.42 5.22,1.42zm51.98 -36.57l0 7.88 -24.83 0 0 -7.88 24.83 0zm-18.69 -10.34l10.17 0 0 40.54c0,1.36 0.21,2.4 0.63,3.13 0.43,0.73 0.98,1.21 1.68,1.48 0.69,0.26 1.45,0.39 2.3,0.39 0.64,0 1.22,-0.05 1.77,-0.14 0.53,-0.09 0.94,-0.17 1.21,-0.25l1.71 7.95c-0.54,0.19 -1.32,0.39 -2.32,0.62 -1,0.22 -2.22,0.36 -3.67,0.39 -2.55,0.07 -4.84,-0.32 -6.89,-1.17 -2.03,-0.85 -3.66,-2.18 -4.84,-3.97 -1.19,-1.81 -1.78,-4.05 -1.76,-6.75l0 -42.22zm45.87 54.36c-4.33,0 -8.06,-0.91 -11.2,-2.72 -3.14,-1.81 -5.55,-4.37 -7.24,-7.7 -1.68,-3.33 -2.52,-7.25 -2.52,-11.75 0,-4.45 0.84,-8.35 2.55,-11.72 1.69,-3.36 4.06,-5.98 7.12,-7.86 3.05,-1.89 6.63,-2.82 10.77,-2.82 2.65,0 5.17,0.42 7.55,1.28 2.36,0.84 4.47,2.16 6.29,3.94 1.83,1.78 3.27,4.04 4.31,6.8 1.06,2.74 1.57,6 1.57,9.79l0 3.13 -35.38 0 0 -6.86 25.63 0c-0.01,-1.95 -0.44,-3.7 -1.27,-5.23 -0.82,-1.52 -1.96,-2.73 -3.44,-3.6 -1.46,-0.88 -3.18,-1.33 -5.13,-1.33 -2.07,0 -3.91,0.5 -5.48,1.51 -1.57,1 -2.79,2.32 -3.67,3.94 -0.87,1.62 -1.32,3.39 -1.33,5.33l0 5.98c0,2.52 0.45,4.67 1.37,6.45 0.93,1.79 2.2,3.16 3.85,4.1 1.65,0.95 3.58,1.43 5.79,1.43 1.48,0 2.82,-0.21 4.02,-0.63 1.19,-0.42 2.23,-1.04 3.11,-1.87 0.88,-0.82 1.55,-1.83 1.99,-3.06l9.51 1.07c-0.61,2.51 -1.74,4.7 -3.42,6.57 -1.69,1.86 -3.83,3.3 -6.43,4.33 -2.61,1.01 -5.59,1.53 -8.94,1.53zm-296.76 46.12l0 -8.74 45.92 0 0 8.74 -17.8 0 0 48.83 -10.34 0 0 -48.83 -17.78 0zm54.3 48.83l0 -43.18 10.18 0 0 43.18 -10.18 0zm5.14 -49.3c-1.62,0 -3.02,-0.54 -4.17,-1.62 -1.15,-1.07 -1.73,-2.38 -1.73,-3.89 0,-1.53 0.58,-2.84 1.74,-3.92 1.16,-1.08 2.55,-1.62 4.16,-1.62 1.62,0 3,0.54 4.16,1.62 1.15,1.08 1.73,2.39 1.73,3.92 0,1.52 -0.58,2.82 -1.73,3.89 -1.16,1.08 -2.53,1.62 -4.16,1.62zm15.49 49.3l0 -43.18 9.73 0 0 7.33 0.5 0c0.9,-2.47 2.39,-4.41 4.47,-5.81 2.07,-1.39 4.56,-2.08 7.44,-2.08 2.93,0 5.39,0.7 7.41,2.11 2.01,1.43 3.43,3.35 4.26,5.78l0.45 0c0.95,-2.39 2.58,-4.31 4.84,-5.74 2.28,-1.44 4.99,-2.15 8.12,-2.15 3.97,0 7.21,1.25 9.72,3.76 2.51,2.51 3.78,6.18 3.78,10.99l0 28.98 -10.21 0 0 -27.4c0,-2.69 -0.71,-4.65 -2.14,-5.9 -1.42,-1.24 -3.16,-1.87 -5.22,-1.87 -2.46,0 -4.37,0.76 -5.75,2.29 -1.37,1.53 -2.06,3.51 -2.06,5.95l0 26.93 -9.98 0 0 -27.82c0,-2.23 -0.68,-4.01 -2.01,-5.35 -1.35,-1.33 -3.09,-2 -5.24,-2 -1.46,0 -2.79,0.38 -4,1.12 -1.2,0.74 -2.15,1.78 -2.86,3.11 -0.71,1.34 -1.07,2.9 -1.07,4.68l0 26.25 -10.18 0zm90.17 0.84c-4.33,0 -8.06,-0.91 -11.2,-2.72 -3.14,-1.81 -5.55,-4.37 -7.24,-7.7 -1.68,-3.33 -2.52,-7.25 -2.52,-11.75 0,-4.45 0.84,-8.35 2.55,-11.72 1.69,-3.36 4.06,-5.98 7.12,-7.86 3.05,-1.89 6.63,-2.82 10.77,-2.82 2.65,0 5.17,0.42 7.55,1.28 2.36,0.84 4.47,2.16 6.29,3.94 1.83,1.78 3.27,4.04 4.31,6.8 1.06,2.74 1.57,6 1.57,9.79l0 3.13 -35.38 0 0 -6.86 25.63 0c-0.01,-1.95 -0.44,-3.7 -1.27,-5.23 -0.82,-1.52 -1.96,-2.73 -3.44,-3.6 -1.46,-0.88 -3.18,-1.33 -5.13,-1.33 -2.07,0 -3.91,0.5 -5.48,1.51 -1.57,1 -2.79,2.32 -3.67,3.94 -0.87,1.62 -1.32,3.39 -1.33,5.33l0 5.98c0,2.52 0.45,4.67 1.37,6.45 0.93,1.79 2.2,3.16 3.85,4.1 1.65,0.95 3.58,1.43 5.79,1.43 1.48,0 2.82,-0.21 4.02,-0.63 1.19,-0.42 2.23,-1.04 3.11,-1.87 0.88,-0.82 1.55,-1.83 1.99,-3.06l9.51 1.07c-0.61,2.51 -1.74,4.7 -3.42,6.57 -1.69,1.86 -3.83,3.3 -6.43,4.33 -2.61,1.01 -5.59,1.53 -8.94,1.53zm45.37 -49.67l0 -8.74 45.92 0 0 8.74 -17.8 0 0 48.83 -10.34 0 0 -48.83 -17.78 0zm49.8 48.83l0 -43.18 9.87 0 0 7.2 0.45 0c0.79,-2.49 2.15,-4.42 4.06,-5.78 1.93,-1.36 4.12,-2.05 6.6,-2.05 0.56,0 1.19,0.03 1.9,0.08 0.7,0.04 1.28,0.12 1.76,0.21l0 9.35c-0.44,-0.14 -1.11,-0.28 -2.04,-0.41 -0.93,-0.12 -1.82,-0.19 -2.68,-0.19 -1.86,0 -3.52,0.41 -4.99,1.2 -1.48,0.79 -2.64,1.9 -3.47,3.3 -0.84,1.41 -1.27,3.03 -1.27,4.87l0 25.38 -10.18 0zm43.01 0.87c-2.73,0 -5.2,-0.49 -7.38,-1.48 -2.19,-0.98 -3.91,-2.44 -5.17,-4.37 -1.27,-1.92 -1.9,-4.31 -1.9,-7.14 0,-2.44 0.45,-4.46 1.34,-6.04 0.9,-1.6 2.13,-2.88 3.68,-3.83 1.56,-0.96 3.31,-1.69 5.28,-2.18 1.95,-0.5 3.98,-0.86 6.08,-1.08 2.53,-0.26 4.58,-0.5 6.16,-0.73 1.57,-0.21 2.72,-0.55 3.45,-1 0.71,-0.46 1.08,-1.19 1.08,-2.15l0 -0.17c0,-2.13 -0.63,-3.76 -1.89,-4.92 -1.25,-1.16 -3.06,-1.74 -5.42,-1.74 -2.49,0 -4.47,0.54 -5.92,1.62 -1.45,1.09 -2.43,2.37 -2.93,3.85l-9.51 -1.34c0.75,-2.63 1.99,-4.82 3.72,-6.6 1.71,-1.77 3.83,-3.1 6.32,-3.98 2.49,-0.89 5.25,-1.33 8.27,-1.33 2.07,0 4.14,0.24 6.2,0.72 2.07,0.49 3.95,1.29 5.66,2.4 1.7,1.12 3.07,2.63 4.11,4.54 1.04,1.91 1.56,4.3 1.56,7.18l0 28.89 -9.78 0 0 -5.94 -0.34 0c-0.62,1.2 -1.49,2.32 -2.6,3.36 -1.12,1.04 -2.51,1.87 -4.19,2.51 -1.68,0.62 -3.63,0.94 -5.88,0.94zm2.64 -7.48c2.05,0 3.81,-0.41 5.32,-1.21 1.51,-0.82 2.65,-1.9 3.47,-3.24 0.82,-1.36 1.23,-2.82 1.23,-4.42l0 -5.09c-0.32,0.26 -0.86,0.51 -1.63,0.74 -0.75,0.23 -1.59,0.42 -2.53,0.58 -0.94,0.17 -1.88,0.33 -2.78,0.46 -0.92,0.13 -1.71,0.24 -2.39,0.33 -1.53,0.21 -2.89,0.54 -4.08,1.01 -1.2,0.46 -2.15,1.12 -2.85,1.95 -0.69,0.83 -1.03,1.9 -1.03,3.22 0,1.87 0.68,3.28 2.05,4.25 1.37,0.95 3.11,1.42 5.22,1.42zm49.25 7.45c-4.31,0 -8.01,-0.95 -11.1,-2.84 -3.07,-1.9 -5.45,-4.51 -7.11,-7.86 -1.65,-3.34 -2.48,-7.2 -2.48,-11.57 0,-4.38 0.84,-8.26 2.52,-11.62 1.69,-3.36 4.08,-5.98 7.16,-7.86 3.07,-1.89 6.73,-2.82 10.95,-2.82 3.5,0 6.61,0.63 9.32,1.92 2.71,1.28 4.87,3.09 6.48,5.42 1.61,2.34 2.53,5.05 2.76,8.16l-9.72 0c-0.39,-2.08 -1.33,-3.83 -2.79,-5.21 -1.48,-1.4 -3.44,-2.1 -5.9,-2.1 -2.07,0 -3.91,0.55 -5.48,1.67 -1.58,1.11 -2.79,2.71 -3.67,4.79 -0.87,2.08 -1.31,4.56 -1.31,7.48 0,2.94 0.42,5.46 1.29,7.57 0.86,2.11 2.07,3.72 3.64,4.86 1.56,1.13 3.4,1.7 5.51,1.7 1.51,0 2.85,-0.28 4.04,-0.86 1.19,-0.57 2.19,-1.4 3,-2.48 0.8,-1.1 1.36,-2.41 1.66,-3.97l9.72 0c-0.25,3.06 -1.15,5.76 -2.71,8.11 -1.56,2.35 -3.67,4.19 -6.34,5.51 -2.68,1.32 -5.83,1.98 -9.45,1.98zm36.13 -14.39l-0.02 -12.28 1.64 0 15.51 -17.35 11.89 0 -19.07 21.25 -2.11 0 -7.82 8.38zm-9.27 13.55l0 -57.57 10.18 0 0 57.57 -10.18 0zm27.09 0l-14.05 -19.64 6.86 -7.18 19.37 26.82 -12.18 0zm35.25 0.84c-4.33,0 -8.06,-0.91 -11.2,-2.72 -3.14,-1.81 -5.55,-4.37 -7.24,-7.7 -1.68,-3.33 -2.52,-7.25 -2.52,-11.75 0,-4.45 0.84,-8.35 2.55,-11.72 1.69,-3.36 4.06,-5.98 7.12,-7.86 3.05,-1.89 6.63,-2.82 10.77,-2.82 2.65,0 5.17,0.42 7.55,1.28 2.36,0.84 4.47,2.16 6.29,3.94 1.83,1.78 3.27,4.04 4.31,6.8 1.06,2.74 1.57,6 1.57,9.79l0 3.13 -35.38 0 0 -6.86 25.63 0c-0.01,-1.95 -0.44,-3.7 -1.27,-5.23 -0.82,-1.52 -1.96,-2.73 -3.44,-3.6 -1.46,-0.88 -3.18,-1.33 -5.13,-1.33 -2.07,0 -3.91,0.5 -5.48,1.51 -1.57,1 -2.79,2.32 -3.67,3.94 -0.87,1.62 -1.32,3.39 -1.33,5.33l0 5.98c0,2.52 0.45,4.67 1.37,6.45 0.93,1.79 2.2,3.16 3.85,4.1 1.65,0.95 3.58,1.43 5.79,1.43 1.48,0 2.82,-0.21 4.02,-0.63 1.19,-0.42 2.23,-1.04 3.11,-1.87 0.88,-0.82 1.55,-1.83 1.99,-3.06l9.51 1.07c-0.61,2.51 -1.74,4.7 -3.42,6.57 -1.69,1.86 -3.83,3.3 -6.43,4.33 -2.61,1.01 -5.59,1.53 -8.94,1.53zm27.8 -0.84l0 -43.18 9.87 0 0 7.2 0.45 0c0.79,-2.49 2.15,-4.42 4.06,-5.78 1.93,-1.36 4.12,-2.05 6.6,-2.05 0.56,0 1.19,0.03 1.9,0.08 0.7,0.04 1.28,0.12 1.76,0.21l0 9.35c-0.44,-0.14 -1.11,-0.28 -2.04,-0.41 -0.93,-0.12 -1.82,-0.19 -2.68,-0.19 -1.86,0 -3.52,0.41 -4.99,1.2 -1.48,0.79 -2.64,1.9 -3.47,3.3 -0.84,1.41 -1.27,3.03 -1.27,4.87l0 25.38 -10.18 0z"/>
  <g id="_1696487532448">
   <circle class="fil1" cx="80.28" cy="80.28" r="80.28"/>
   <circle class="fil2" cx="80.28" cy="80.28" r="65.27"/>
   <rect class="fil3" x="75.88" y="21.32" width="8.81" height="58.96"/>
   <rect class="fil4" transform="matrix(-0.0718446 -0.208652 0.126025 -0.0433941 47.0743 96.3767)" width="39.92" height="274.89"/>
   <circle class="fil4" cx="80.28" cy="80.28" r="8.01"/>
  </g>
 </g>
</svg>
