<?xml version="1.0" encoding="UTF-8"?>
<!DOCTYPE svg PUBLIC "-//W3C//DTD SVG 1.1//EN" "http://www.w3.org/Graphics/SVG/1.1/DTD/svg11.dtd">
<!-- Creator: CorelDRAW 2020 (64 Bit) -->
<svg xmlns="http://www.w3.org/2000/svg" xml:space="preserve" width="31.3719mm" height="7.476mm" version="1.1" style="shape-rendering:geometricPrecision; text-rendering:geometricPrecision; image-rendering:optimizeQuality; fill-rule:evenodd; clip-rule:evenodd"
viewBox="0 0 3137.18 747.6"
 xmlns:xlink="http://www.w3.org/1999/xlink"
 xmlns:xodm="http://www.corel.com/coreldraw/odm/2003">
 <defs>
  <style type="text/css">
   <![CDATA[
    .fil1 {fill:#4C4D5F}
    .fil3 {fill:#B3B3B3}
    .fil4 {fill:#EC502A}
    .fil2 {fill:white}
    .fil0 {fill:#EC502A;fill-rule:nonzero}
   ]]>
  </style>
 </defs>
 <g id="Camada_x0020_1">
  <metadata id="CorelCorpID_0Corel-Layer"/>
  <path class="fil0" d="M1004.75 25.62l48.59 0 0 175.12c0,19.23 -4.55,36.12 -13.57,50.68 -9.03,14.56 -21.69,25.92 -38.03,34.09 -16.34,8.17 -35.38,12.22 -57.18,12.22 -21.93,0 -41.04,-4.05 -57.31,-12.22 -16.34,-8.17 -29,-19.53 -37.96,-34.09 -8.97,-14.56 -13.52,-31.45 -13.52,-50.68l0 -175.12 48.59 0 0 171.07c0,11.18 2.46,21.13 7.37,29.85 4.98,8.72 11.92,15.54 20.89,20.46 8.96,4.97 19.65,7.43 31.94,7.43 12.28,0 22.97,-2.46 32,-7.43 9.03,-4.92 15.97,-11.74 20.88,-20.46 4.86,-8.72 7.31,-18.67 7.31,-29.85l0 -171.07zm146.74 0l0 268.06 -47.42 0 0 -268.06 47.42 0zm149.08 67.02l0 36.67 -115.6 0 0 -36.67 115.6 0zm-87.04 -48.16l47.36 0 0 188.76c0,6.32 0.99,11.18 2.95,14.56 1.97,3.37 4.55,5.65 7.8,6.88 3.2,1.22 6.76,1.84 10.69,1.84 3.01,0 5.71,-0.25 8.23,-0.68 2.46,-0.43 4.36,-0.8 5.65,-1.16l7.99 37.03c-2.52,0.86 -6.14,1.85 -10.81,2.89 -4.67,1.05 -10.32,1.66 -17.08,1.84 -11.85,0.31 -22.54,-1.47 -32.06,-5.46 -9.46,-3.93 -17.02,-10.14 -22.55,-18.49 -5.52,-8.42 -8.29,-18.86 -8.17,-31.45l0 -196.56zm126.66 249.2l0 -201.04 47.42 0 0 201.04 -47.42 0zm23.96 -229.55c-7.56,0 -14.07,-2.51 -19.41,-7.55 -5.34,-4.98 -8.05,-11.06 -8.05,-18.12 0,-7.13 2.71,-13.21 8.11,-18.24 5.41,-5.04 11.86,-7.56 19.35,-7.56 7.56,0 13.94,2.52 19.35,7.56 5.34,5.03 8.05,11.11 8.05,18.24 0,7.06 -2.71,13.14 -8.05,18.12 -5.41,5.04 -11.79,7.55 -19.35,7.55zm72.11 229.55l0 -201.04 45.34 0 0 34.15 2.33 0c4.18,-11.49 11.12,-20.52 20.82,-27.03 9.65,-6.45 21.26,-9.7 34.65,-9.7 13.63,0 25.12,3.25 34.52,9.82 9.33,6.64 15.97,15.61 19.84,26.91l2.09 0c4.42,-11.12 11.97,-20.09 22.54,-26.72 10.63,-6.7 23.22,-10.01 37.78,-10.01 18.48,0 33.6,5.83 45.27,17.5 11.67,11.67 17.56,28.75 17.56,51.17l0 134.95 -47.54 0 0 -127.58c0,-12.53 -3.32,-21.62 -9.95,-27.46 -6.63,-5.77 -14.74,-8.72 -24.32,-8.72 -11.43,0 -20.34,3.56 -26.79,10.69 -6.38,7.12 -9.58,16.34 -9.58,27.7l0 125.37 -46.5 0 0 -129.55c0,-10.38 -3.13,-18.67 -9.33,-24.87 -6.27,-6.21 -14.38,-9.34 -24.39,-9.34 -6.82,0 -13.02,1.78 -18.61,5.22 -5.59,3.44 -10.01,8.29 -13.33,14.5 -3.32,6.26 -4.98,13.51 -4.98,21.8l0 122.24 -47.42 0zm388.71 4.05c-12.72,0 -24.2,-2.27 -34.34,-6.88 -10.2,-4.54 -18.18,-11.36 -24.08,-20.33 -5.9,-8.97 -8.84,-20.08 -8.84,-33.23 0,-11.36 2.08,-20.76 6.26,-28.13 4.18,-7.43 9.89,-13.39 17.14,-17.81 7.25,-4.49 15.42,-7.87 24.57,-10.14 9.09,-2.33 18.55,-3.99 28.32,-5.04 11.79,-1.22 21.31,-2.33 28.68,-3.37 7.31,-0.99 12.66,-2.58 16.03,-4.67 3.32,-2.15 5.04,-5.53 5.04,-10.01l0 -0.8c0,-9.89 -2.95,-17.51 -8.78,-22.92 -5.84,-5.4 -14.25,-8.1 -25.25,-8.1 -11.61,0 -20.82,2.52 -27.58,7.55 -6.76,5.1 -11.3,11.06 -13.64,17.94l-44.28 -6.27c3.5,-12.22 9.27,-22.42 17.32,-30.71 7.98,-8.23 17.81,-14.43 29.42,-18.55 11.61,-4.18 24.45,-6.2 38.52,-6.2 9.64,0 19.28,1.1 28.86,3.37 9.65,2.28 18.37,6.02 26.36,11.18 7.92,5.22 14.31,12.23 19.16,21.13 4.85,8.91 7.25,20.03 7.25,33.42l0 134.52 -45.52 0 0 -27.64 -1.59 0c-2.89,5.59 -6.94,10.81 -12.1,15.66 -5.23,4.85 -11.68,8.72 -19.54,11.67 -7.8,2.89 -16.89,4.36 -27.39,4.36zm12.28 -34.82c9.52,0 17.75,-1.91 24.76,-5.66 7,-3.8 12.34,-8.84 16.15,-15.11 3.81,-6.32 5.71,-13.14 5.71,-20.57l0 -23.71c-1.47,1.23 -3.99,2.39 -7.55,3.44 -3.5,1.04 -7.43,1.96 -11.8,2.7 -4.36,0.8 -8.72,1.54 -12.96,2.15 -4.3,0.61 -7.98,1.11 -11.11,1.54 -7.13,0.98 -13.46,2.51 -18.98,4.72 -5.59,2.15 -10.02,5.23 -13.27,9.1 -3.2,3.87 -4.79,8.84 -4.79,14.98 0,8.73 3.13,15.3 9.52,19.78 6.39,4.42 14.49,6.64 24.32,6.64zm242.01 -170.27l0 36.67 -115.6 0 0 -36.67 115.6 0zm-87.04 -48.16l47.36 0 0 188.76c0,6.32 0.99,11.18 2.95,14.56 1.97,3.37 4.55,5.65 7.8,6.88 3.2,1.22 6.76,1.84 10.69,1.84 3.01,0 5.71,-0.25 8.23,-0.68 2.46,-0.43 4.36,-0.8 5.65,-1.16l7.99 37.03c-2.52,0.86 -6.14,1.85 -10.81,2.89 -4.67,1.05 -10.32,1.66 -17.08,1.84 -11.85,0.31 -22.54,-1.47 -32.06,-5.46 -9.46,-3.93 -17.02,-10.14 -22.55,-18.49 -5.52,-8.42 -8.29,-18.86 -8.17,-31.45l0 -196.56zm213.58 253.13c-20.15,0 -37.53,-4.24 -52.15,-12.65 -14.62,-8.42 -25.86,-20.33 -33.72,-35.87 -7.8,-15.48 -11.74,-33.73 -11.74,-54.73 0,-20.7 3.94,-38.89 11.86,-54.55 7.86,-15.66 18.92,-27.83 33.17,-36.61 14.19,-8.78 30.9,-13.14 50.12,-13.14 12.35,0 24.08,1.96 35.14,5.95 10.99,3.94 20.82,10.08 29.3,18.37 8.54,8.29 15.23,18.8 20.08,31.63 4.92,12.78 7.31,27.95 7.31,45.58l0 14.56 -164.74 0 0 -31.94 119.35 0c-0.06,-9.09 -2.03,-17.2 -5.9,-24.33 -3.81,-7.06 -9.15,-12.71 -16.03,-16.76 -6.82,-4.12 -14.8,-6.21 -23.89,-6.21 -9.65,0 -18.19,2.34 -25.5,7 -7.3,4.67 -13.02,10.81 -17.07,18.37 -4.06,7.55 -6.14,15.79 -6.21,24.82l0 27.82c0,11.73 2.09,21.75 6.39,30.04 4.3,8.35 10.26,14.74 17.94,19.1 7.68,4.42 16.65,6.63 26.96,6.63 6.88,0 13.15,-0.98 18.74,-2.94 5.53,-1.97 10.38,-4.86 14.5,-8.73 4.11,-3.8 7.18,-8.53 9.27,-14.25l44.29 4.98c-2.83,11.67 -8.11,21.87 -15.91,30.59 -7.86,8.66 -17.81,15.35 -29.91,20.15 -12.17,4.73 -26.05,7.12 -41.65,7.12zm-1381.76 214.74l0 -40.73 213.82 0 0 40.73 -82.86 0 0 227.33 -48.16 0 0 -227.33 -82.8 0zm252.82 227.33l0 -201.04 47.42 0 0 201.04 -47.42 0zm23.96 -229.55c-7.56,0 -14.07,-2.51 -19.41,-7.55 -5.34,-4.98 -8.05,-11.06 -8.05,-18.12 0,-7.13 2.71,-13.21 8.11,-18.24 5.41,-5.04 11.86,-7.56 19.35,-7.56 7.56,0 13.94,2.52 19.35,7.56 5.34,5.03 8.05,11.11 8.05,18.24 0,7.06 -2.71,13.14 -8.05,18.12 -5.41,5.04 -11.79,7.55 -19.35,7.55zm72.11 229.55l0 -201.04 45.34 0 0 34.15 2.33 0c4.18,-11.49 11.12,-20.52 20.82,-27.03 9.65,-6.45 21.26,-9.7 34.65,-9.7 13.63,0 25.12,3.25 34.52,9.82 9.33,6.64 15.97,15.61 19.84,26.91l2.09 0c4.42,-11.12 11.97,-20.09 22.54,-26.72 10.63,-6.7 23.22,-10.01 37.78,-10.01 18.48,0 33.6,5.83 45.27,17.5 11.67,11.67 17.56,28.75 17.56,51.17l0 134.95 -47.54 0 0 -127.58c0,-12.53 -3.32,-21.62 -9.95,-27.46 -6.63,-5.77 -14.74,-8.72 -24.32,-8.72 -11.43,0 -20.34,3.56 -26.79,10.69 -6.38,7.12 -9.58,16.34 -9.58,27.7l0 125.37 -46.5 0 0 -129.55c0,-10.38 -3.13,-18.67 -9.33,-24.87 -6.27,-6.21 -14.38,-9.34 -24.39,-9.34 -6.82,0 -13.02,1.78 -18.61,5.22 -5.59,3.44 -10.01,8.29 -13.33,14.5 -3.32,6.26 -4.98,13.51 -4.98,21.8l0 122.24 -47.42 0zm419.85 3.93c-20.15,0 -37.53,-4.24 -52.15,-12.65 -14.62,-8.42 -25.86,-20.33 -33.72,-35.87 -7.8,-15.48 -11.74,-33.73 -11.74,-54.73 0,-20.7 3.94,-38.89 11.86,-54.55 7.86,-15.66 18.92,-27.83 33.17,-36.61 14.19,-8.78 30.9,-13.14 50.12,-13.14 12.35,0 24.08,1.96 35.14,5.95 10.99,3.94 20.82,10.08 29.3,18.37 8.54,8.29 15.23,18.8 20.08,31.63 4.92,12.78 7.31,27.95 7.31,45.58l0 14.56 -164.74 0 0 -31.94 119.35 0c-0.06,-9.09 -2.03,-17.2 -5.9,-24.33 -3.81,-7.06 -9.15,-12.71 -16.03,-16.76 -6.82,-4.12 -14.8,-6.21 -23.89,-6.21 -9.65,0 -18.19,2.34 -25.5,7 -7.3,4.67 -13.02,10.81 -17.07,18.37 -4.06,7.55 -6.14,15.79 -6.21,24.82l0 27.82c0,11.73 2.09,21.75 6.39,30.04 4.3,8.35 10.26,14.74 17.94,19.1 7.68,4.42 16.65,6.63 26.96,6.63 6.88,0 13.15,-0.98 18.74,-2.94 5.53,-1.97 10.38,-4.86 14.5,-8.73 4.11,-3.8 7.18,-8.53 9.27,-14.25l44.29 4.98c-2.83,11.67 -8.11,21.87 -15.91,30.59 -7.86,8.66 -17.81,15.35 -29.91,20.15 -12.17,4.73 -26.05,7.12 -41.65,7.12zm211.24 -231.26l0 -40.73 213.82 0 0 40.73 -82.86 0 0 227.33 -48.16 0 0 -227.33 -82.8 0zm231.88 227.33l0 -201.04 45.95 0 0 33.53 2.09 0c3.68,-11.61 10.01,-20.57 18.92,-26.9 8.97,-6.33 19.16,-9.52 30.71,-9.52 2.58,0 5.53,0.12 8.85,0.37 3.25,0.18 5.95,0.55 8.16,0.98l0 43.55c-2.02,-0.67 -5.15,-1.29 -9.52,-1.9 -4.3,-0.56 -8.47,-0.86 -12.47,-0.86 -8.66,0 -16.4,1.9 -23.21,5.59 -6.88,3.68 -12.29,8.84 -16.16,15.35 -3.93,6.57 -5.9,14.13 -5.9,22.67l0 118.18 -47.42 0zm200.25 4.05c-12.72,0 -24.2,-2.27 -34.34,-6.88 -10.2,-4.54 -18.18,-11.36 -24.08,-20.33 -5.9,-8.97 -8.84,-20.08 -8.84,-33.23 0,-11.36 2.08,-20.76 6.26,-28.13 4.18,-7.43 9.89,-13.39 17.14,-17.81 7.25,-4.49 15.42,-7.87 24.57,-10.14 9.09,-2.33 18.55,-3.99 28.32,-5.04 11.79,-1.22 21.31,-2.33 28.68,-3.37 7.31,-0.99 12.66,-2.58 16.03,-4.67 3.32,-2.15 5.04,-5.53 5.04,-10.01l0 -0.8c0,-9.89 -2.95,-17.51 -8.78,-22.92 -5.84,-5.4 -14.25,-8.1 -25.25,-8.1 -11.61,0 -20.82,2.52 -27.58,7.55 -6.76,5.1 -11.3,11.06 -13.64,17.94l-44.28 -6.27c3.5,-12.22 9.27,-22.42 17.32,-30.71 7.98,-8.23 17.81,-14.43 29.42,-18.55 11.61,-4.18 24.45,-6.2 38.52,-6.2 9.64,0 19.28,1.1 28.86,3.37 9.65,2.28 18.37,6.02 26.36,11.18 7.92,5.22 14.31,12.23 19.16,21.13 4.85,8.91 7.25,20.03 7.25,33.42l0 134.52 -45.52 0 0 -27.64 -1.59 0c-2.89,5.59 -6.94,10.81 -12.1,15.66 -5.23,4.85 -11.68,8.72 -19.54,11.67 -7.8,2.89 -16.89,4.36 -27.39,4.36zm12.28 -34.82c9.52,0 17.75,-1.91 24.76,-5.66 7,-3.8 12.34,-8.84 16.15,-15.11 3.81,-6.32 5.71,-13.14 5.71,-20.57l0 -23.71c-1.47,1.23 -3.99,2.39 -7.55,3.44 -3.5,1.04 -7.43,1.96 -11.8,2.7 -4.36,0.8 -8.72,1.54 -12.96,2.15 -4.3,0.61 -7.98,1.11 -11.11,1.54 -7.13,0.98 -13.46,2.51 -18.98,4.72 -5.59,2.15 -10.02,5.23 -13.27,9.1 -3.2,3.87 -4.79,8.84 -4.79,14.98 0,8.73 3.13,15.3 9.52,19.78 6.39,4.42 14.49,6.64 24.32,6.64zm229.3 34.7c-20.09,0 -37.29,-4.42 -51.66,-13.21 -14.31,-8.84 -25.37,-21 -33.11,-36.6 -7.68,-15.54 -11.55,-33.54 -11.55,-53.87 0,-20.4 3.94,-38.46 11.74,-54.12 7.86,-15.66 18.98,-27.83 33.35,-36.61 14.31,-8.78 31.33,-13.14 50.98,-13.14 16.28,0 30.78,2.94 43.37,8.96 12.59,5.96 22.67,14.38 30.16,25.25 7.49,10.87 11.79,23.53 12.84,38.02l-45.27 0c-1.85,-9.7 -6.21,-17.81 -13.03,-24.26 -6.87,-6.51 -16.03,-9.77 -27.45,-9.77 -9.65,0 -18.18,2.58 -25.49,7.8 -7.37,5.16 -13.03,12.6 -17.08,22.3 -4.05,9.71 -6.08,21.25 -6.08,34.83 0,13.7 1.96,25.43 6.02,35.26 3.99,9.82 9.64,17.32 16.95,22.6 7.25,5.28 15.85,7.92 25.68,7.92 7,0 13.27,-1.29 18.79,-3.99 5.53,-2.64 10.2,-6.51 13.95,-11.55 3.74,-5.09 6.32,-11.24 7.74,-18.48l45.27 0c-1.17,14.25 -5.35,26.84 -12.6,37.77 -7.24,10.94 -17.07,19.53 -29.54,25.68 -12.47,6.14 -27.15,9.21 -43.98,9.21zm168.25 -67.01l-0.13 -57.19 7.62 0 72.24 -80.77 55.34 0 -88.82 98.95 -9.83 0 -36.42 39.01zm-43.19 63.08l0 -268.06 47.42 0 0 268.06 -47.42 0zm126.17 0l-65.42 -91.46 31.94 -33.42 90.18 124.88 -56.7 0zm164.13 3.93c-20.15,0 -37.53,-4.24 -52.15,-12.65 -14.62,-8.42 -25.86,-20.33 -33.72,-35.87 -7.8,-15.48 -11.74,-33.73 -11.74,-54.73 0,-20.7 3.94,-38.89 11.86,-54.55 7.86,-15.66 18.92,-27.83 33.17,-36.61 14.19,-8.78 30.9,-13.14 50.12,-13.14 12.35,0 24.08,1.96 35.14,5.95 10.99,3.94 20.82,10.08 29.3,18.37 8.54,8.29 15.23,18.8 20.08,31.63 4.92,12.78 7.31,27.95 7.31,45.58l0 14.56 -164.74 0 0 -31.94 119.35 0c-0.06,-9.09 -2.03,-17.2 -5.9,-24.33 -3.81,-7.06 -9.15,-12.71 -16.03,-16.76 -6.82,-4.12 -14.8,-6.21 -23.89,-6.21 -9.65,0 -18.19,2.34 -25.5,7 -7.3,4.67 -13.02,10.81 -17.07,18.37 -4.06,7.55 -6.14,15.79 -6.21,24.82l0 27.82c0,11.73 2.09,21.75 6.39,30.04 4.3,8.35 10.26,14.74 17.94,19.1 7.68,4.42 16.65,6.63 26.96,6.63 6.88,0 13.15,-0.98 18.74,-2.94 5.53,-1.97 10.38,-4.86 14.5,-8.73 4.11,-3.8 7.18,-8.53 9.27,-14.25l44.29 4.98c-2.83,11.67 -8.11,21.87 -15.91,30.59 -7.86,8.66 -17.81,15.35 -29.91,20.15 -12.17,4.73 -26.05,7.12 -41.65,7.12zm129.42 -3.93l0 -201.04 45.95 0 0 33.53 2.09 0c3.68,-11.61 10.01,-20.57 18.92,-26.9 8.97,-6.33 19.16,-9.52 30.71,-9.52 2.58,0 5.53,0.12 8.85,0.37 3.25,0.18 5.95,0.55 8.16,0.98l0 43.55c-2.02,-0.67 -5.15,-1.29 -9.52,-1.9 -4.3,-0.56 -8.47,-0.86 -12.47,-0.86 -8.66,0 -16.4,1.9 -23.21,5.59 -6.88,3.68 -12.29,8.84 -16.16,15.35 -3.93,6.57 -5.9,14.13 -5.9,22.67l0 118.18 -47.42 0z"/>
  <g id="_1696487506912">
   <circle class="fil1" cx="373.8" cy="373.8" r="373.8"/>
   <circle class="fil2" cx="373.8" cy="373.8" r="303.88"/>
   <rect class="fil3" x="353.29" y="99.27" width="41.02" height="274.53"/>
   <rect class="fil4" transform="matrix(-0.1147 -0.333114 0.201201 -0.069279 219.176 448.73)" width="116.42" height="801.69"/>
   <circle class="fil4" cx="373.8" cy="373.8" r="37.31"/>
  </g>
 </g>
</svg>
