<?xml version="1.0" encoding="UTF-8"?>
<!DOCTYPE svg PUBLIC "-//W3C//DTD SVG 1.1//EN" "http://www.w3.org/Graphics/SVG/1.1/DTD/svg11.dtd">
<!-- Creator: CorelDRAW 2020 (64 Bit) -->
<svg xmlns="http://www.w3.org/2000/svg" xml:space="preserve" width="9.8672mm" height="9.8672mm" version="1.1" style="shape-rendering:geometricPrecision; text-rendering:geometricPrecision; image-rendering:optimizeQuality; fill-rule:evenodd; clip-rule:evenodd"
viewBox="0 0 135.84 135.84"
 xmlns:xlink="http://www.w3.org/1999/xlink"
 xmlns:xodm="http://www.corel.com/coreldraw/odm/2003">
 <defs>
  <style type="text/css">
   <![CDATA[
    .fil1 {fill:#B3B3B3}
    .fil0 {fill:white}
   ]]>
  </style>
 </defs>
 <g id="Camada_x0020_1">
  <metadata id="CorelCorpID_0Corel-Layer"/>
  <circle class="fil0" cx="67.92" cy="67.92" r="67.92"/>
  <path class="fil1" d="M66.27 26.93c12.85,0 23.26,10.41 23.26,23.26 0,8.05 -4.09,15.14 -10.3,19.31 12.43,5.1 21.18,17.33 21.18,31.6 0,0.42 -0.01,0.84 -0.02,1.26 -9.85,4.15 -21.56,6.55 -34.12,6.55 -12.56,0 -24.27,-2.41 -34.12,-6.55 -0.02,-0.42 -0.03,-0.84 -0.03,-1.26 0,-14.27 8.75,-26.49 21.18,-31.6 -6.21,-4.18 -10.3,-11.27 -10.3,-19.31 0,-12.85 10.41,-23.26 23.26,-23.26z"/>
 </g>
</svg>
